<svg xmlns="http://www.w3.org/2000/svg" width="100" height="116" viewBox="0 0 100 116" fill="none">
  <path d="M80 0H20C8.95431 0 0 8.9543 0 20V80C0 91.0457 8.9543 100 20 100H80C91.0457 100 100 91.0457 100 80V20C100 8.95431 91.0457 0 80 0Z" fill="#50BF50"/>
  <path d="M48.9218 24.2324H38.5185C34.9675 24.2324 32.0888 27.1111 32.0888 30.6621C32.0888 34.2131 34.9675 37.0918 38.5185 37.0918H48.9218C52.4729 37.0918 55.3515 34.2131 55.3515 30.6621C55.3515 27.1111 52.4729 24.2324 48.9218 24.2324Z" fill="white"/>
  <path d="M63.1151 35.9365C66.0276 35.9365 68.3886 33.5755 68.3886 30.6631C68.3886 27.7506 66.0276 25.3896 63.1151 25.3896C60.2027 25.3896 57.8417 27.7506 57.8417 30.6631C57.8417 33.5755 60.2027 35.9365 63.1151 35.9365Z" fill="white"/>
  <path d="M42.0605 46.6399C43.1875 47.0774 48.1552 48.8723 54.8291 47.3694C57.1933 46.8372 59.1855 46.0227 60.8095 45.1546C63.5459 43.6917 66.9228 45.26 67.6025 48.2864C68.0097 50.1009 67.3105 51.9827 65.8203 53.094C63.9326 54.5012 61.0019 56.2024 57.0127 57.0999C50.3388 58.6028 45.3711 56.8079 44.2441 56.3704L42.0605 46.6389V46.6399Z" fill="white"/>
  <g filter="url(#filter0_d_746_620)">
    <path d="M44.666 30.6621C44.666 27.1111 41.7873 24.2324 38.2363 24.2324C34.6853 24.2324 31.8066 27.1111 31.8066 30.6621V69.2412C31.8066 72.7922 34.6853 75.6709 38.2363 75.6709C41.7873 75.6709 44.666 72.7922 44.666 69.2412V30.6621Z" fill="white"/>
  </g>
  <defs>
    <filter id="filter0_d_746_620" x="11.8066" y="4.23242" width="72.8594" height="111.438" filterUnits="userSpaceOnUse" color-interpolation-filters="sRGB">
      <feFlood flood-opacity="0" result="BackgroundImageFix"/>
      <feColorMatrix in="SourceAlpha" type="matrix" values="0 0 0 0 0 0 0 0 0 0 0 0 0 0 0 0 0 0 127 0" result="hardAlpha"/>
      <feOffset dx="10" dy="10"/>
      <feGaussianBlur stdDeviation="15"/>
      <feColorMatrix type="matrix" values="0 0 0 0 0.313726 0 0 0 0 0.74902 0 0 0 0 0.313726 0 0 0 0.2 0"/>
      <feBlend mode="normal" in2="BackgroundImageFix" result="effect1_dropShadow_746_620"/>
      <feBlend mode="normal" in="SourceGraphic" in2="effect1_dropShadow_746_620" result="shape"/>
    </filter>
  </defs>
</svg>