<svg width="31" height="31" viewBox="0 0 31 31" fill="none" xmlns="http://www.w3.org/2000/svg">
<path fill-rule="evenodd" clip-rule="evenodd" d="M10.3762 15.898C10.1417 15.6637 10.0099 15.3458 10.0097 15.0143C10.0095 14.6828 10.1409 14.3648 10.3751 14.1302L17.4421 7.05367C17.5573 6.93419 17.6952 6.83887 17.8476 6.77326C18.0001 6.70764 18.1641 6.67306 18.3301 6.67151C18.496 6.66997 18.6607 6.7015 18.8143 6.76427C18.968 6.82703 19.1076 6.91978 19.225 7.03709C19.3425 7.1544 19.4354 7.29393 19.4983 7.44753C19.5613 7.60113 19.593 7.76574 19.5917 7.93174C19.5903 8.09774 19.5559 8.2618 19.4905 8.41437C19.4251 8.56694 19.33 8.70494 19.2106 8.82034L13.0269 15.0125L19.2182 21.1971C19.446 21.4327 19.5722 21.7485 19.5696 22.0763C19.5669 22.4041 19.4356 22.7177 19.204 22.9496C18.9724 23.1816 18.659 23.3132 18.3312 23.3163C18.0035 23.3193 17.6876 23.1935 17.4518 22.9659L10.3762 15.898Z" fill="black"/>
</svg>
