<svg width="31" height="31" viewBox="0 0 31 31" fill="none" xmlns="http://www.w3.org/2000/svg">
<path fill-rule="evenodd" clip-rule="evenodd" d="M20.6235 15.898C20.858 15.6637 20.9898 15.3458 20.99 15.0143C20.9902 14.6828 20.8588 14.3648 20.6246 14.1302L13.5572 7.05367C13.442 6.93419 13.3041 6.83887 13.1516 6.77326C12.9991 6.70764 12.8351 6.67306 12.6691 6.67151C12.5032 6.66997 12.3385 6.7015 12.1849 6.76427C12.0312 6.82703 11.8916 6.91978 11.7741 7.03709C11.6567 7.1544 11.5638 7.29393 11.5008 7.44753C11.4379 7.60113 11.4061 7.76574 11.4075 7.93174C11.4088 8.09774 11.4432 8.2618 11.5086 8.41437C11.5741 8.56694 11.6692 8.70494 11.7885 8.82034L17.9726 15.0125L11.781 21.1971C11.5531 21.4327 11.4269 21.7485 11.4296 22.0763C11.4322 22.4041 11.5635 22.7177 11.7952 22.9496C12.0268 23.1816 12.3402 23.3132 12.668 23.3163C12.9958 23.3193 13.3116 23.1935 13.5475 22.9659L20.6235 15.898Z" fill="black"/>
</svg>
