<svg width="24" height="24" viewBox="0 0 24 24" fill="none" xmlns="http://www.w3.org/2000/svg">
<rect width="24" height="24" fill="white" fill-opacity="0.01"/>
<path fill-rule="evenodd" clip-rule="evenodd" d="M16 10.4C16 13.4928 13.4928 16 10.4 16C7.30715 16 4.79995 13.4928 4.79995 10.4C4.79995 7.30721 7.30715 4.80001 10.4 4.80001C13.4928 4.80001 16 7.30721 16 10.4ZM14.8941 16.0255C13.6624 17.0109 12.1 17.6 10.4 17.6C6.4235 17.6 3.19995 14.3765 3.19995 10.4C3.19995 6.42356 6.4235 3.20001 10.4 3.20001C14.3764 3.20001 17.6 6.42356 17.6 10.4C17.6 12.1 17.0108 13.6624 16.0254 14.8942L20.5657 19.4343C20.878 19.7467 20.878 20.2533 20.5657 20.5658C20.2532 20.8781 19.7467 20.8781 19.4342 20.5658L14.8941 16.0255Z" fill="#38B238"/>
</svg>
