<svg width="20" height="20" viewBox="0 0 20 20" fill="none" xmlns="http://www.w3.org/2000/svg">
<g id="Abstract / info-circled">
<rect width="20" height="20" fill="white" fill-opacity="0.01"/>
<path id="Vector" fill-rule="evenodd" clip-rule="evenodd" d="M9.99988 1.16919C5.12296 1.16919 1.16943 5.12272 1.16943 9.99963C1.16943 14.8765 5.12296 18.8301 9.99988 18.8301C14.8768 18.8301 18.8303 14.8765 18.8303 9.99963C18.8303 5.12272 14.8768 1.16919 9.99988 1.16919ZM2.43609 9.99963C2.43609 5.82228 5.82252 2.43585 9.99988 2.43585C14.1772 2.43585 17.5636 5.82228 17.5636 9.99963C17.5636 14.1769 14.1772 17.5635 9.99988 17.5635C5.82252 17.5635 2.43609 14.1769 2.43609 9.99963ZM10.9999 5.99999C10.9999 6.55227 10.5522 6.99999 9.99989 6.99999C9.44761 6.99999 8.99989 6.55227 8.99989 5.99999C8.99989 5.44769 9.44761 4.99999 9.99989 4.99999C10.5522 4.99999 10.9999 5.44769 10.9999 5.99999ZM8.00004 7.99999H8.66671H10C10.3682 7.99999 10.6667 8.29845 10.6667 8.66665V13.3333H11.3334H12V14.6667H11.3334H10H8.66671H8.00004V13.3333H8.66671H9.33337V9.33332H8.66671H8.00004V7.99999Z" fill="#25292C"/>
</g>
</svg>
